<?xml version="1.0" encoding="UTF-8"?><svg style="background-color:#0c3b4f" id="uuid-7f9b164f-6465-462e-bd6a-2954fa5a7007" xmlns="http://www.w3.org/2000/svg" viewBox="0 0 79.64 64.04"><g id="uuid-8c7a7951-9d39-44e0-b1f4-68c50d2663a7"><path d="m59.09,64.04c-.45,0-.89-.2-1.19-.58-.5-.65-.41-1.56.23-2.07.54-.43,1.21-.64,1.74-.81l.31-.1c.78-.27,1.63-.78,2.44-1.3.76-.49,1.45-1.12,2.25-1.92.24-.24.47-.52.69-.8.37-.46.8-.98,1.32-1.42.12-.1.28-.23.47-.37.11-.09.29-.22.49-.38-.27-.04-.55-.07-.83-.1-.47-.05-.94-.1-1.39-.18-3.76-.62-6.87-1.99-9.26-4.07-.87-.76-1.58-1.72-2.21-2.57-.2-.27-.39-.53-.59-.78-.98-1.02-.65-2.06-.08-2.65.61-.63,1.14-1.43,1.53-2.06,1.19-1.9,2.49-3.73,3.75-5.5.81-1.14,1.63-2.29,2.41-3.45.75-1.11,1.46-2.29,2.15-3.42.62-1.02,1.26-2.07,1.93-3.1.47-.71.94-1.41,1.42-2.1.87-1.27,1.7-2.47,2.45-3.75,1.09-1.84,2.4-3.45,3.66-5.01.43-.53.87-1.07,1.3-1.62.58-.74,1.17-1.51,1.68-2.28-1.81.11-3.62.41-5.52.72-1.16.19-2.36.39-3.55.54-2.14.27-4.26.35-6.32.42-1.18.04-2.37.09-3.56.17-2.43.16-4.94.72-7.37,1.25-.84.18-1.67.37-2.5.54-.96.2-1.79.41-2.61.66-.14.04-.29.11-.45.17-.38.16-.85.35-1.36.42-.04.02-.08.04-.12.06-.35.18-1.08.56-1.91.2-.38-.17-.89-.54-1.14-1.41-.13-.46-.41-1-.67-1.52l-.25-.49c-.64-1.3-1.04-2.64-1.31-4.35-.05-.34-.09-.69-.13-1.05-.1-.85-.19-1.73-.48-2.34-.11-.24-.3-.48-.53-.77-.22-.28-.44-.56-.62-.87-.13-.21-.21-.43-.37-.92-.92.25-1.91.84-2.4,1.13-1.51.9-2.99,2.04-4.42,3.14-.64.49-1.27.98-1.91,1.45-.77.57-1.55,1.12-2.33,1.67-.56.4-1.13.79-1.69,1.19-.48.35-1.01.63-1.51.89-.55.29-1.07.56-1.4.86-.15.13-1.51,1.32-2.75,1.04-.84-.18-1.22-.9-1.4-1.25l-.05-.09c-.29-.37-.74-.8-1.22-1.24-.26-.25-.52-.49-.77-.74-.76-.77-1.47-1.59-2.16-2.38-.17-.2-.35-.4-.52-.59-.45,2.19-1.23,4.28-2.09,6.49-1.42,3.64-2.98,6.12-5.21,8.3-.61.6-1.3,1.27-2.3.8-.45-.21-.96-.68-.88-1.74,0-.07.01-.15.01-.25,0-.86.75-1.54,1.6-1.5,1.65-1.75,2.83-3.75,3.98-6.71,1.25-3.2,2.22-5.9,2.31-9.01.03-.99.7-1.47,1.26-1.58,1.25-.23,1.76.93,2,1.49h0c.74.76,1.43,1.55,2.1,2.33.68.79,1.33,1.54,2.03,2.24.22.22.45.44.69.66.48.45.97.91,1.42,1.45.6-.52,1.28-.89,1.95-1.24.43-.23.84-.44,1.16-.67.57-.41,1.15-.82,1.72-1.22.76-.53,1.52-1.07,2.27-1.62.62-.46,1.24-.94,1.86-1.42,1.5-1.16,3.05-2.36,4.72-3.35,1.48-.88,3.25-1.76,5-1.66,1.09.06,1.38.95,1.75,2.07.06.19.12.36.16.48.11.17.25.34.38.51.29.37.62.79.88,1.34.5,1.06.63,2.24.75,3.28.04.32.07.63.12.93.22,1.41.53,2.45,1.03,3.48l.23.45c.17.34.36.71.53,1.09.07-.01.14-.03.21-.04.13-.01.43-.14.64-.23.24-.1.48-.2.71-.27.93-.29,1.85-.52,2.9-.74.81-.17,1.63-.35,2.45-.53,2.54-.56,5.16-1.14,7.82-1.32,1.22-.08,2.44-.13,3.65-.17,2.08-.08,4.05-.15,6.06-.4,1.14-.14,2.3-.34,3.43-.52,2.37-.39,4.83-.8,7.33-.8h.21c.61,0,1.55-.01,2.08.85.54.88.07,1.82-.14,2.21-.73,1.42-1.77,2.82-2.78,4.11-.44.56-.89,1.11-1.33,1.66-1.25,1.54-2.43,3-3.41,4.65-.81,1.36-1.7,2.66-2.56,3.92-.47.68-.93,1.36-1.39,2.05-.65.98-1.27,2.01-1.87,3.01-.71,1.17-1.44,2.38-2.23,3.55-.8,1.18-1.63,2.35-2.46,3.51-1.24,1.74-2.51,3.53-3.65,5.35-.33.53-.75,1.17-1.24,1.79.08.11.16.22.25.33.56.76,1.15,1.55,1.77,2.09,1.99,1.73,4.53,2.83,7.77,3.37.4.07.81.11,1.23.15.99.11,2.02.22,3.03.58,1.49.53,1.46,1.57,1.3,2.14-.15,1.34-1.5,2.37-2.49,3.12-.15.11-.27.21-.37.29-.3.25-.6.62-.92,1.01-.28.34-.56.69-.9,1.03-.81.81-1.7,1.65-2.75,2.32-.96.62-2,1.24-3.08,1.61-.12.04-.25.08-.39.13-.23.07-.65.2-.77.29-.27.2-.6.3-.92.3ZM35.9,3s0,0,0,0c0,0,0,0,0,0Z" style="fill:#ffed00; stroke-width:0px;"/></g></svg>