<?xml version="1.0" encoding="UTF-8"?><svg style="background-color:#0c3b4f" id="uuid-1f4af90c-62a9-41da-ae55-dba25ea48a8d" xmlns="http://www.w3.org/2000/svg" viewBox="0 0 81.59 80.73"><g id="uuid-35e3bdc8-28fe-491e-8970-9084e2d1ae3b"><path d="m47.65,80.73c-.23,0-.45-.05-.67-.16-.74-.37-1.04-1.27-.67-2.01.38-.75,1.02-1.03,1.4-1.19,1.18-.52,2.15-1.11,3.04-1.83,3.04-2.47,5.68-5.55,8.24-8.54,1.83-2.13,3.72-4.34,5.77-6.35.03-.03.32-.29.74-.67.46-.41,1.28-1.15,2.04-1.84-1.5-.72-2.86-1.62-4.18-2.5-.54-.36-1.08-.71-1.63-1.06-2.42-1.52-5.51-2.24-8.5-2.93-.53-.12-1.04-.24-1.55-.37-.26-.06-.51-.1-.73-.14-.69-.11-1.64-.26-2.14-1.15-.52-.93-.11-1.93.04-2.31.38-.94.89-1.75,1.38-2.54.33-.53.65-1.04.91-1.56,1.52-3.05,3.59-5.68,5.59-8.23.95-1.22,1.94-2.48,2.85-3.75,2.8-3.95,6.25-7.9,10.26-11.73,1.16-1.11,2.35-2.09,3.62-2.96l-.23.02c-1.05.11-2.1.21-3.16.29h-.13c-3.12.23-6.06.43-9.03,1-2.43.46-4.89.87-7.28,1.26-2.57.42-5.23.86-7.82,1.37-1.49.29-3.03.68-4.52,1.06-2.68.68-5.45,1.37-8.25,1.63-.33.03-1.09.1-1.7-.46-.6-.54-.6-1.25-.6-1.71,0-1.62.23-3.34.66-5.04.24-.93.49-1.85.74-2.77.63-2.29,1.22-4.46,1.61-6.73.17-.98.39-2.31.41-3.48-.03.01-.06.03-.09.04-1.86.84-3.52,2.41-5.12,3.93l-.44.42c-1.82,1.72-3.72,3.38-5.56,4.99-.99.87-1.98,1.73-2.97,2.61-1.58,1.41-3.36,3-6.13,2.86-1.43-.07-1.89-1.57-2.11-2.29l-.05-.15c-1.21-3.48-3.79-6.53-5.77-8.49-.2.69-.44,1.36-.69,2.01-.14.39-.29.78-.42,1.16-.85,2.55-1.4,5.11-1.74,8.04-.11.98-.07,1.93-.03,2.94.02.55.04,1.1.04,1.66,0,.83-.67,1.5-1.5,1.5s-1.5-.67-1.5-1.5c0-.52-.02-1.04-.04-1.54-.04-1.08-.09-2.19.05-3.4.36-3.14.95-5.89,1.87-8.65.14-.41.29-.83.45-1.25.29-.77.58-1.58.75-2.31l.04-.17c.15-.74.41-1.97,1.57-2.35.31-.1,1.13-.26,1.97.5,2.18,1.96,6.1,5.99,7.78,10.86l.08.25s.03.09.05.15c1.12-.15,2.01-.9,3.33-2.07.99-.88,1.99-1.76,2.99-2.63,1.82-1.59,3.7-3.24,5.48-4.91l.43-.41c1.7-1.61,3.63-3.44,5.95-4.49,2.22-1,2.98-.62,3.27-.48.45.22.76.63.87,1.11.43,1.93.02,4.31-.27,6.05-.41,2.42-1.05,4.76-1.67,7.02-.25.9-.5,1.81-.73,2.72-.29,1.13-.47,2.28-.54,3.35,2.29-.3,4.57-.88,6.79-1.43,1.53-.39,3.11-.78,4.67-1.09,2.64-.52,5.32-.96,7.91-1.38,2.37-.39,4.81-.79,7.2-1.25,3.15-.6,6.32-.83,9.39-1.04h.13c1.03-.08,2.05-.18,3.07-.29,1.9-.19,3.87-.39,5.86-.39.25,0,.49-.02.69-.03.44-.03,1.77-.13,2.08,1.15.31,1.3-.92,1.82-1.58,2.1-3.1,1.3-5.66,2.97-8.06,5.26-3.87,3.7-7.2,7.5-9.89,11.3-.95,1.33-1.96,2.62-2.93,3.87-2,2.54-3.88,4.95-5.27,7.72-.32.64-.69,1.23-1.05,1.8-.33.52-.64,1.02-.89,1.53.16.03.33.06.5.11.5.12,1.01.24,1.53.36,3.08.72,6.57,1.53,9.42,3.31.57.36,1.13.73,1.69,1.1,1.41.93,2.73,1.81,4.19,2.46.05.01.25.05.46.09.81.17,1.4.29,1.83.72l.46.46-.02.65q-.02.73-4.43,4.7c-.36.32-.61.55-.67.6-1.94,1.9-3.79,4.06-5.57,6.14-2.64,3.08-5.37,6.27-8.62,8.91-1.1.89-2.29,1.62-3.63,2.21l-.12.05s-.04.01-.05.02c-.29.37-.73.58-1.19.58Z" style="fill:#ffed00; stroke-width:0px;"/></g></svg>