<?xml version="1.0" encoding="UTF-8"?><svg style="background-color:#0c3b4f" id="uuid-833f205f-e04c-4baf-acd2-e0e452afa29f" xmlns="http://www.w3.org/2000/svg" viewBox="0 0 79.54 69.8"><g id="uuid-1dc5a1ea-60e0-4624-8041-0fb8fb5d57c7"><path d="m55.59,69.8c-.55,0-1.08-.3-1.34-.83-.33-.67-.13-1.46.46-1.88.01-.02.02-.04.03-.05.18-.29.5-.84,1.17-1.13.39-.17.78-.4,1.2-.65.21-.12.42-.25.64-.37.48-.27.96-.54,1.44-.81,1.21-.69,2.47-1.4,3.75-2.04,2.09-1.04,4.34-1.66,6.57-2.19-.27-.07-.51-.12-.72-.17l-.39-.09c-2.93-.69-5.17-1.53-7.75-2.89l-.46-.24c-2.26-1.19-4.39-2.32-6.77-3-.5-.14-.9-.5-1.1-.97-.39-.9-.02-1.95.76-3.46l.05-.09c.71-1.41,1.32-2.87,1.93-4.58.31-.88.59-1.77.87-2.66.67-2.13,1.37-4.34,2.47-6.4,1.42-2.66,3.01-5.25,5.32-8.67,2.7-4.01,6.15-8,10.52-12.15-.72.1-1.45.23-2.2.36-.95.17-1.94.35-2.95.47l-.89.1c-4.13.48-8.41.98-12.53,1.78-4.83.93-10.41,2.23-15.17,4.74-.79.42-1.49.99-2.23,1.58-.25.2-.5.41-.76.61-.48.37-1.12.45-1.68.2-.6-.27-1.03-.9-1.07-1.57-.07-1.12-.06-2.24-.05-3.32.01-1.69.03-3.28-.23-4.87-.37-2.28-.52-4.78-.43-7.16-.51.48-1.04.94-1.6,1.38-2.13,1.68-4.54,3.19-7.15,4.51-.36.18-.73.36-1.11.55-1.77.86-3.6,1.75-4.86,3.07-.29.31-.32.76-.3,1.73,0,.24,0,.47,0,.71,0,.6-.03,1.73-1.06,2.21-.29.14-1.07.38-1.91-.31-1.73-1.41-3.4-2.82-4.87-4.51-.41-.48-.73-.97-1.04-1.44-.26-.41-.51-.79-.79-1.11-.87-1-1.94-1.93-2.97-2.83l-.22-.19c-.49-.43-1.01-.8-1.4-1.04-.18.29-.27.5-.38,1l-.13.58c-.21.94-.45,2-.45,2.83,0,.5-.15.94-.26,1.3-.04.11-.07.21-.1.31-.3,1.33-.45,2.69-.47,4.15,0,.57,0,1.14,0,1.7v.87c0,.83-.67,1.5-1.5,1.5S0,23.69,0,22.86v-.86C0,21.42,0,20.84,0,20.26c.01-1.68.19-3.24.54-4.78.04-.19.1-.39.17-.59.04-.13.1-.32.11-.39,0-1.14.28-2.38.53-3.47l.12-.56c.25-1.12.58-1.66.91-2.18.09-.14.18-.28.28-.46.29-.51.77-.84,1.35-.94.38-.07,1.55-.26,4.14,2l.22.19c1.11.96,2.25,1.96,3.26,3.12.42.48.74.98,1.05,1.46.26.4.5.79.78,1.1.8.92,1.67,1.75,2.61,2.56.09-.83.35-1.72,1.1-2.5,1.63-1.7,3.8-2.76,5.71-3.69.36-.18.72-.35,1.07-.53,2.44-1.23,4.67-2.64,6.65-4.19,1.65-1.29,3.06-2.86,4.35-4.4.45-.98.96-1.26,1.19-1.39l1.1-.62.87.96c.83,1.02-.05,2.02-.38,2.39-.06.07-.12.15-.18.22-.12.35-.24.9-.33,1.63-.32,2.79-.25,6.02.22,8.86.3,1.84.28,3.63.27,5.37,0,.24,0,.47,0,.7.43-.31.89-.61,1.39-.87,5.1-2.7,10.95-4.06,16-5.04,4.23-.82,8.56-1.32,12.75-1.81l.89-.1c.92-.11,1.82-.27,2.77-.44,1.65-.29,3.36-.6,5.16-.6h2.37l.4.97c.37.95-.19,1.69-1.42,2.8-5.03,4.58-8.89,8.92-11.8,13.24-2.25,3.34-3.79,5.85-5.17,8.42-.97,1.81-1.6,3.79-2.26,5.88-.29.93-.59,1.85-.91,2.76-.65,1.83-1.31,3.39-2.07,4.92l-.06.12c-.11.22-.2.4-.28.56,2.16.75,4.1,1.77,6.12,2.85l.46.24c2.33,1.23,4.37,1.99,7.04,2.62l.37.09c1.4.32,3.31.76,4.44,1.83.04.04.07.07.1.09l1.11.32.02,1.18c0,.46-.03,1.43-2.77,2.1l-.62.14c-2.56.58-5.21,1.18-7.46,2.31-1.22.61-2.44,1.3-3.62,1.97-.49.28-.98.55-1.47.82-.19.11-.38.22-.57.33-.41.24-.84.49-1.3.71,0,.01-.01.02-.02.03-.17.29-.46.77-1.04,1.06-.22.11-.44.16-.67.16Zm-17.83-47.25s0,0,0,0c0,0,0,0,0,0Zm-2.09-.82s0,0,0,0c0,0,0,0,0,0Z" style="fill:#ffed00; stroke-width:0px;"/></g></svg>