<?xml version="1.0" encoding="UTF-8"?><svg style="background-color:#0c3b4f" id="uuid-156485e7-95bb-4703-9ed7-7c9665374bc1" xmlns="http://www.w3.org/2000/svg" viewBox="0 0 77.18 66.79"><g id="uuid-baf0dfcf-7658-4651-a97a-4181060e7c8a"><path d="m54.96,66.79c-.38,0-.77-.11-1.11-.34-.92-.61-1.17-1.85-.55-2.77,1.01-1.52,3.01-2.63,4.61-3.52.27-.15.52-.29.75-.42.75-.44,1.52-.97,2.32-1.55.95-.67,1.92-1.36,2.93-1.91-4.94-1.95-12.48-5.99-13.88-8.28-.65-1.06-.42-1.95-.23-2.39.97-2.18,2.79-4.06,4.55-5.88.83-.86,1.61-1.67,2.22-2.43.67-.84,1.34-1.68,2.03-2.52,3.59-4.45,7.3-9.06,10.11-13.81.5-.85,1.05-1.67,1.59-2.46,1.01-1.48,1.97-2.9,2.52-4.41-.65.18-1.37.43-1.82.59-.72.25-1.33.46-1.85.57l-.51.11c-1.34.28-2.86.6-4.29.6-2.04,0-4.32.49-6.53.96-1.22.26-2.48.53-3.7.72-5.29.81-10.27,1.99-15.78,3.34-.08.02-.18.06-.29.1-.8.27-2.13.73-3.29-.09-.38-.28-1.03-.92-1.03-2.11,0-2.15,0-5.75-.57-7.79-.3-1.07-.5-2.15-.7-3.19-.23-1.19-.44-2.32-.78-3.39,0-.02-.02-.05-.02-.07-.64.29-1.27.79-1.94,1.3-.76.59-1.55,1.19-2.5,1.67-1.9.95-3.63,2.34-5.46,3.82-1.97,1.59-4.01,3.23-6.37,4.36l-.13.06c-2.23,1.07-3.43,1.12-5.11-1.29-.23-.33-.44-.76-.68-1.27-.14-.28-.37-.78-.51-1.02-.34-.28-.71-.76-1.61-1.9-.24-.31-.59-.75-.96-1.22-.54,3.37-1.18,6.81-2.58,10.08-.44,1.01-1.61,1.49-2.63,1.05-1.02-.43-1.49-1.61-1.05-2.63,1.39-3.24,1.96-6.91,2.51-10.45.12-.77.24-1.54.37-2.3.15-.88.76-1.56,1.6-1.78,1.69-.43,2.83.89,5.89,4.78.38.48.84,1.07,1.04,1.3.62.48,1.01,1.24,1.54,2.36.14.29.26.56.36.72.03-.01.06-.03.09-.04l.13-.06c1.94-.93,3.71-2.35,5.58-3.87,1.91-1.54,3.89-3.14,6.18-4.28.6-.3,1.2-.77,1.84-1.26.93-.72,1.99-1.54,3.31-2.01,1.29-.47,2.23-.81,3.26-.27.98.51,1.23,1.44,1.42,2.19.06.23.13.5.24.83.41,1.3.65,2.6.89,3.85.19,1,.37,1.95.62,2.86.55,1.99.68,4.71.71,7.01,5.28-1.29,10.46-2.5,15.79-3.32,1.1-.17,2.25-.42,3.47-.68,2.41-.52,4.91-1.05,7.37-1.05,1.01,0,2.32-.27,3.47-.51l.52-.11c.26-.05.83-.25,1.34-.43,2.29-.79,4.9-1.69,6.52-.28.47.41,1.21,1.34.88,3-.54,2.78-2.04,4.99-3.48,7.12-.52.77-1.02,1.5-1.46,2.25-2.96,5-6.76,9.72-10.44,14.28-.68.84-1.35,1.68-2.02,2.51-.72.91-1.61,1.83-2.47,2.71-1.24,1.29-2.52,2.61-3.32,3.89,2.49,2.14,12.03,6.84,13.97,7,1.43.08,2.12.98,2.29,1.79.14.66.46,2.2-4.07,4.46-.89.44-1.82,1.11-2.82,1.81-.85.6-1.72,1.21-2.63,1.74-.25.14-.52.3-.81.46-1.09.61-2.75,1.53-3.22,2.24-.39.58-1.02.89-1.67.89ZM11.3,8.8s0,0,0,0c0,0,0,0,0,0Z" style="fill:#ffed00; stroke-width:0px;"/></g></svg>