<?xml version="1.0" encoding="UTF-8"?><svg style="background-color:#0c3b4f" id="uuid-eb429c92-7a35-405a-9bd1-a066927f6a10" xmlns="http://www.w3.org/2000/svg" viewBox="0 0 78.7 75.24"><g id="uuid-a4daf2f6-a5e5-4629-839c-b7e4107e6865"><path d="m47.65,75.24c-.46,0-.91-.21-1.2-.6-.5-.66-.36-1.6.3-2.1,2.01-1.51,4.19-2.33,6.3-3.13.68-.26,1.36-.51,2.04-.8,4.99-2.07,10.25-4.12,15.71-5.07-2.79-1.05-5.65-2.16-8.4-3.57-.87-.45-1.73-.93-2.59-1.42-1.61-.92-3.14-1.79-4.75-2.38-.38-.14-.89-.24-1.42-.34-.96-.19-2.04-.4-2.94-.96-.39-.25-.66-.63-.75-1.09-.17-.84.28-1.67,1.11-2.82,1.14-1.62,2.39-2.87,3.59-4.08.49-.49.98-.99,1.47-1.51,2.73-2.91,5.14-6.29,7.47-9.55,1.16-1.63,2.36-3.31,3.59-4.92,3.16-4.15,5.26-7.84,6.24-10.99.21-.69.17-1.66.12-2.6-.02-.39-.04-.77-.04-1.14-.11.01-.24.04-.4.07-1.24.22-2.45.23-3.62.22-.32.26-.67.47-.99.65-.13.08-.25.14-.34.21-1.69,1.17-3.8,1.75-5.67,2.27-.51.14-1.01.28-1.48.42-3.4,1.04-6.72,2.62-9.94,4.15-2.19,1.04-4.45,2.12-6.75,3.04-9.64,3.83-9.96,3.62-10.61,3.21l-.65-.41-.05-.77c-.12-2,.28-3.96.66-5.85l.19-.93c.88-4.52,1-9.04,1-13.25v-4.53c-.39.38-.8.75-1.24,1.11-2.14,1.73-4.29,3.54-6.37,5.29-3.84,3.22-7.8,6.56-11.92,9.58-.44.32-.83.69-1.19,1.13-.32.9-.96,1.1-1.32,1.14-.5.06-1.18-.13-1.58-.85-.16-.28-.31-.58-.47-.88-.32-.62-.66-1.27-1.01-1.71-1.09-1.37-1.95-2.86-2.78-4.3-.87-1.5-1.68-2.91-2.72-4.17l-.15-.19c-.16-.2-.3-.37-.43-.52-.13.68-.2,1.4-.26,2.15-.04.42-.07.84-.12,1.26-.34,3.02-.29,6.21-.24,9.29.02,1.16.04,2.32.04,3.48,0,.83-.67,1.5-1.5,1.5s-1.5-.67-1.5-1.5c0-1.13-.02-2.28-.04-3.42-.06-3.18-.11-6.46.26-9.68.04-.39.08-.79.11-1.18.13-1.53.27-3.11,1.01-4.67.29-.6.82-.99,1.46-1.07,1.31-.15,2.43,1.08,3.55,2.48l.13.16c1.2,1.45,2.12,3.04,3.01,4.58.81,1.41,1.58,2.73,2.53,3.93.28.36.54.76.77,1.16.22-.19.44-.37.68-.55,4.03-2.96,7.96-6.26,11.76-9.45,2.09-1.76,4.26-3.58,6.42-5.32.4-.32.8-.7,1.22-1.1.73-.7,1.49-1.42,2.41-1.99.81-.53,1.43-.31,1.73-.14.3.17.8.6.76,1.49v.1s0,7.4,0,7.4c0,4.36-.13,9.05-1.06,13.82l-.19.95c-.21,1.03-.42,2.08-.54,3.1,2.39-.86,6.35-2.36,7.13-2.67,2.21-.88,4.43-1.94,6.58-2.96,3.31-1.58,6.73-3.2,10.35-4.31.5-.15,1.03-.3,1.56-.45,1.72-.47,3.49-.96,4.76-1.84.14-.1.33-.21.54-.33.19-.11.53-.31.63-.41,0,0-.06.06-.11.17l1.13.57v-1.4h1.98c.67-.01,1.33-.06,1.96-.17.76-.14,2.03-.37,3,.44.62.52.94,1.31.94,2.36,0,.34.02.71.04,1.08.06,1.15.12,2.44-.25,3.64-1.08,3.49-3.34,7.5-6.72,11.92-1.2,1.57-2.39,3.24-3.54,4.85-2.39,3.34-4.86,6.8-7.72,9.86-.51.54-1.02,1.06-1.53,1.57-1.17,1.18-2.28,2.29-3.21,3.62l-.07.1s-.01.02-.02.03c.24.05.49.1.74.15.63.12,1.28.25,1.89.47,1.85.68,3.55,1.65,5.2,2.59.82.47,1.64.93,2.47,1.36,2.91,1.49,5.89,2.61,9.03,3.79,1.35.51,2.71,1.02,4.06,1.56.92.37,2.07.83,1.81,2.12-.26,1.27-1.54,1.25-2.02,1.24-.22,0-.51,0-.83,0-6.73.26-13.36,2.8-19.58,5.38-.71.29-1.42.56-2.13.83-2,.76-3.9,1.48-5.57,2.73-.27.2-.59.3-.9.3Z" style="fill:#ffed00; stroke-width:0px;"/></g></svg>